<?xml version="1.0" standalone="no"?><!DOCTYPE svg PUBLIC "-//W3C//DTD SVG 1.1//EN" "http://www.w3.org/Graphics/SVG/1.1/DTD/svg11.dtd"><svg t="1756368313371" class="icon" viewBox="0 0 1024 1024" version="1.1" xmlns="http://www.w3.org/2000/svg" p-id="4449" xmlns:xlink="http://www.w3.org/1999/xlink" width="200" height="200"><path d="M312.483343 921.751314H219.044696a118.968331 118.968331 0 0 1-118.968331-118.713034v-93.693944a51.05937 51.05937 0 0 0-100.076365 0v93.693944A219.299993 219.299993 0 0 0 219.044696 1022.082976h93.438647a51.05937 51.05937 0 1 0 0-100.331662zM801.887402 0.895581h-93.949241a51.05937 51.05937 0 1 0 0 100.331662h93.949241a118.968331 118.968331 0 0 1 118.968331 119.223628v93.438647a51.05937 51.05937 0 1 0 100.331662 0V220.450871A219.55529 219.55529 0 0 0 801.887402 0.895581zM51.05937 363.9277a51.05937 51.05937 0 0 0 51.059369-51.05937V220.195574a118.968331 118.968331 0 0 1 116.925957-118.968331h93.693944a51.05937 51.05937 0 0 0 0-100.331662H219.044696A219.55529 219.55529 0 0 0 0 220.195574v93.438647a51.05937 51.05937 0 0 0 51.05937 50.293479zM970.128025 659.306154a51.05937 51.05937 0 0 0-51.05937 51.05937v93.693943a118.968331 118.968331 0 0 1-118.968331 118.713035h-92.162163a51.05937 51.05937 0 1 0 0 100.331661h93.949241A219.299993 219.299993 0 0 0 1021.187395 803.03828v-93.693944a51.05937 51.05937 0 0 0-51.05937-50.038182zM241.510819 358.311169a139.392079 139.392079 0 0 0-106.458786 43.655762 158.028749 158.028749 0 0 0-40.081605 111.564722 149.85925 149.85925 0 0 0 39.315714 106.458786 136.583814 136.583814 0 0 0 102.11874 41.613387 136.839111 136.839111 0 0 0 104.671708-43.145168A157.007562 157.007562 0 0 0 382.945273 507.915123a153.178109 153.178109 0 0 0-38.294527-107.224677A132.243768 132.243768 0 0 0 241.510819 358.311169z m44.676948 214.449353a56.420604 56.420604 0 0 1-47.995807 21.700232 56.420604 56.420604 0 0 1-47.485214-22.466122 102.118739 102.118739 0 0 1-17.870779-60.505353 98.03399 98.03399 0 0 1 18.381373-62.037135 57.697088 57.697088 0 0 1 48.506401-22.976716 55.144119 55.144119 0 0 1 46.97462 22.210826 104.671708 104.671708 0 0 1 17.360186 63.824212 97.012802 97.012802 0 0 1-17.87078 60.250056zM550.930599 358.311169a150.625141 150.625141 0 0 0-111.820019 44.421652 154.70989 154.70989 0 0 0-43.400465 113.096504 144.753313 144.753313 0 0 0 38.294528 105.692895 141.434454 141.434454 0 0 0 105.182301 40.081606 187.898481 187.898481 0 0 0 82.716179-15.828405l4.340047-2.042375v-73.014898l-11.743655 6.893014a124.329565 124.329565 0 0 1-63.824212 16.849592 72.504305 72.504305 0 0 1-56.931198-22.466122 84.758554 84.758554 0 0 1-20.168451-60.505353 86.545632 86.545632 0 0 1 22.210826-62.547728 76.589055 76.589055 0 0 1 59.484166-23.742607 117.947144 117.947144 0 0 1 59.994759 15.573108l11.743655 6.893014v-76.589054l-5.105937-1.787078a198.110355 198.110355 0 0 0-70.972524-10.977765zM872.859926 446.133285c0-37.783934-18.63667-82.971476-107.224677-82.971475h-105.182302v293.336079h74.801977v-107.479974h10.211874a21.444935 21.444935 0 0 1 13.530733 4.850641 93.94924 93.94924 0 0 1 20.168451 25.529684l45.953433 76.589055h86.800928L851.925584 562.548648a146.029797 146.029797 0 0 0-31.146216-37.018043 91.906866 91.906866 0 0 0 33.954481-25.529685 83.226773 83.226773 0 0 0 18.126077-53.867635z m-76.589055 7.403609a32.677997 32.677997 0 0 1-10.211874 25.529685 39.315715 39.315715 0 0 1-28.082653 9.70128h-22.72142v-65.100696h22.466123c33.699184 0 37.27334 16.083701 37.27334 29.869731z" p-id="4450" fill="#1296db"></path></svg>